# xmcd
#
# Track frame offsets:
#	183
#	11963
#	31460
#	44188
#	56018
#	70678
#	88615
#	102885
#	120915
#	132640
#	144953
#	159778
#	171910
#	188413
#	202020
#	212815
#	221778
#	247918
#	265213
#	279175
#	289940
#	301468
#	313063
#	323805
#	335458
#
# Disc length: 4613
#
# Revision: 3
# Processed by: cddbd v1.5.1PL0 Copyright (c) Steve Scherf et al.
# Submitted via: FreeRIP 2.11 
# Normalized: r2:TDELIM( - )
#
DISCID=78120319
DTITLE=100 Soul Hits
DYEAR=1991
DGENRE=Soul
TTITLE0=Sam and Dave - Soul Sister Brown Sugar
TTITLE1=James Brown - Sex Machine
TTITLE2=Gladys Knight and The Pips - Love Me Again
TTITLE3=The Drifters - Up On The Roof
TTITLE4=The Moments - Look At Me I'm In Love
TTITLE5=Dobie Gray - Driftaway
TTITLE6=Wilson Pickett - It's Too Late
TTITLE7=Ben E. King - She Does It Right...
TTITLE8=Brook Benton - Hotel Happiness
TTITLE9=The Kingsmen - Louie, Louie
TTITLE10=James Brown - Get On The Good Foot
TTITLE11=King Curtis - Soul Twist
TTITLE12=Eddie Floyd - Never Found A Girl
TTITLE13=Sam and Dave - Don't Pull Your Love Out On Me Baby
TTITLE14=The Drifters - Dance With Me
TTITLE15=Gladys Knight and The Pips - If ever i should fall in love
TTITLE16=Ramsey Lewis - The in crowd
TTITLE17=The Moments - Love On A Two Way Street
TTITLE18=Percy Sledge - Take Time To Know Her...
TTITLE19=The Impressions - I Need Your Love
TTITLE20=Sam and Dave - Can't You Find Another Way?
TTITLE21=The Drifters - Some Kind Of Wonderful
TTITLE22=Brook Benton - Thank You Pretty Baby
TTITLE23=Gladys Knight and The Pips - What Shall I Do
TTITLE24=James Brown - I Feel Good
EXTD=
EXTT0=
EXTT1=
EXTT2=
EXTT3=
EXTT4=
EXTT5=
EXTT6=
EXTT7=
EXTT8=
EXTT9=
EXTT10=
EXTT11=
EXTT12=
EXTT13=
EXTT14=
EXTT15=
EXTT16=
EXTT17=
EXTT18=
EXTT19=
EXTT20=
EXTT21=
EXTT22=
EXTT23=
EXTT24=
PLAYORDER=
